<svg width="307" height="333" viewBox="0 0 307 333" fill="none" xmlns="http://www.w3.org/2000/svg">
<rect width="307" height="333" fill="#E5E5E5"/>
<g id="Brand &#226;&#128;&#148; Game Day Edition">
<rect x="-120" y="-211" width="1500" height="1150" rx="24" fill="white"/>
<path id="Vector" fill-rule="evenodd" clip-rule="evenodd" d="M139.511 0.12611C127.957 0.570789 114.553 1.73339 103.164 3.27843C96.9912 4.11596 92.6257 4.77858 89.621 5.33431C88.666 5.51084 86.9471 5.82921 85.8011 6.04183C84.6552 6.25422 83.0858 6.57442 82.3137 6.75326C81.5416 6.9321 80.7149 7.07833 80.4764 7.07833C80.238 7.07833 79.4113 7.22363 78.6392 7.40131C77.8671 7.57877 76.4019 7.90059 75.3833 8.11646C74.3646 8.33232 72.9061 8.64767 72.1422 8.81703C71.3782 8.98638 69.9718 9.29364 69.0168 9.49955C66.3978 10.0648 64.3966 10.5465 63.1446 10.9132C62.5254 11.0946 61.8572 11.2429 61.6602 11.2429C61.4632 11.2429 60.7719 11.3921 60.1242 11.5746C59.4764 11.7572 58.2691 12.082 57.4415 12.2965C56.6138 12.5107 55.4678 12.8175 54.8949 12.9781C54.3219 13.1386 53.1759 13.4521 52.3483 13.675C49.329 14.4875 48.2522 14.7892 45.9818 15.4581C44.7085 15.8331 43.198 16.2759 42.625 16.442C40.9688 16.9223 34.7183 18.8913 33.8277 19.2133C32.1618 19.8158 31.3777 20.0807 30.7023 20.2692C30.3204 20.3759 28.966 20.8393 27.6927 21.2993C26.4195 21.7592 24.6484 22.3865 23.7571 22.6932C22.8658 23 21.5636 23.4722 20.8633 23.7425C20.163 24.0127 19.3295 24.3223 19.0112 24.4305C18.6929 24.5388 17.8595 24.8512 17.1592 25.1246C16.4589 25.3981 15.6254 25.7042 15.3071 25.8044C14.7573 25.9777 12.573 26.8066 10.5612 27.6055C9.43908 28.0511 7.45831 28.9278 6.05075 29.602C4.70523 30.2461 2.40265 32.5544 1.58242 34.0811C0.21166 36.6321 0.0389521 37.9352 0.0331644 45.7786L0.0276112 52.8979L0.759169 54.3973C2.32624 57.6096 5.98175 59.112 9.71527 58.0785C11.4835 57.589 14.8075 56.3038 18.664 54.6181C19.5029 54.2514 22.7271 52.9652 23.9308 52.5173C25.2802 52.015 26.5699 51.5308 27.5191 51.1703C29.2726 50.5042 31.6768 49.6357 32.3379 49.4295C32.7116 49.3129 34.528 48.6871 36.3743 48.0386C40.8595 46.4634 44.0406 45.4163 45.8661 44.9145C46.6937 44.6868 47.7876 44.371 48.2969 44.2125C48.8062 44.054 49.848 43.7424 50.612 43.52C51.376 43.2979 52.3136 43.0127 52.6955 42.8866C53.0775 42.7602 53.7547 42.5761 54.2003 42.4771C54.646 42.378 55.9482 42.0259 57.0942 41.6946C59.0828 41.1194 60.3997 40.7601 63.2291 40.0211C63.9294 39.8381 65.0233 39.5425 65.66 39.3641C66.2966 39.1857 67.5468 38.871 68.438 38.6647C69.3294 38.4583 70.6316 38.1436 71.3319 37.9653C75.3634 36.9385 82.7873 35.3851 91.1837 33.8116C92.1706 33.6265 94.0717 33.3088 95.4087 33.1055C96.7456 32.9019 98.725 32.5902 99.8073 32.4126C102.911 31.9033 108.725 31.163 116.013 30.3488C129.175 28.8787 147.525 28.189 162.817 28.5897C167.868 28.7223 172.296 28.8822 172.656 28.9451C173.016 29.0083 175.186 29.1642 177.478 29.2917C179.77 29.4192 182.791 29.6325 184.192 29.7655C191.699 30.4791 194.19 30.7305 196.925 31.0512C202.496 31.7044 206.169 32.2284 211.278 33.0985C212.297 33.2721 214.172 33.5876 215.445 33.7998C216.719 34.0122 218.49 34.3271 219.381 34.4999C220.272 34.6727 221.939 34.983 223.085 35.1894C224.231 35.3957 225.95 35.721 226.905 35.9124C228.514 36.2347 229.199 36.392 232.345 37.1624C232.982 37.3184 233.972 37.5319 234.545 37.6372C235.118 37.7424 236.993 38.1911 238.712 38.6339C240.431 39.0767 243.504 39.862 245.541 40.3791C247.578 40.8959 249.506 41.4114 249.824 41.5248C250.142 41.6379 251.08 41.9116 251.908 42.133C252.735 42.3542 253.829 42.6649 254.339 42.8234C254.848 42.9819 255.89 43.2878 256.654 43.5029C259.894 44.4154 260.643 44.6308 261.631 44.9346C263.752 45.5863 271.743 48.2567 272.975 48.725C273.675 48.9911 274.977 49.4575 275.869 49.7611C276.76 50.0646 278.062 50.5331 278.763 50.8022C279.463 51.0713 280.765 51.5351 281.656 51.8331C282.548 52.1314 283.537 52.4793 283.856 52.6063C284.174 52.7336 284.851 52.9943 285.361 53.1859C285.87 53.3777 287.068 53.8469 288.023 54.2287C288.978 54.6106 290.332 55.1474 291.032 55.4218C291.733 55.6962 292.514 56.0101 292.769 56.1194C293.023 56.2288 293.857 56.5566 294.621 56.8484C295.385 57.1401 296.114 57.4488 296.241 57.5344C296.369 57.62 297.225 57.8814 298.145 58.1151C302.143 59.1313 305.953 56.5238 306.771 52.2123C307.087 50.5512 307.072 41.0088 306.752 39.4427C306.116 36.3353 305.857 35.5834 304.738 33.6117C303.213 30.9209 300.151 28.7316 295.778 27.2048C294.312 26.693 291.754 25.7514 290.106 25.1172C289.406 24.8477 288.573 24.5388 288.254 24.4305C287.936 24.3223 287.103 24.0111 286.402 23.7388C285.702 23.4664 284.712 23.1058 284.203 22.9376C283.694 22.7691 282.391 22.3041 281.309 21.9041C277.364 20.446 266.79 17.026 262.21 15.7262C261.573 15.5455 260.531 15.2482 259.895 15.0654C257.32 14.3265 256.355 14.0565 254.917 13.6722C254.09 13.451 252.892 13.1241 252.255 12.9457C251.618 12.7673 250.577 12.4756 249.94 12.2976C247.789 11.6961 243.909 10.7265 241.49 10.1855C240.535 9.97221 239.233 9.66173 238.596 9.49561C235.796 8.7652 227.102 6.98139 220.075 5.6957C211.642 4.15275 209.416 3.81358 199.703 2.59059C193.282 1.78221 186.427 1.18135 175.51 0.46968C169.252 0.061788 146.762 -0.152913 139.511 0.12611ZM142.752 46.5289C132.139 46.9562 120.326 47.8715 118.212 48.4303C113.479 49.6812 109.796 53.375 108.085 58.585L107.563 60.1761V180.716C107.563 296.581 107.579 301.31 107.984 302.644C109.389 307.278 111.924 310.344 116.686 313.17C117.974 313.934 119.076 314.559 119.134 314.559C119.193 314.559 120.034 315.028 121.003 315.601C121.972 316.173 122.8 316.642 122.842 316.642C122.885 316.642 123.713 317.11 124.682 317.683C125.651 318.255 126.489 318.724 126.543 318.724C126.597 318.724 127.154 319.026 127.781 319.395C128.882 320.044 130.189 320.773 132.739 322.162C135.206 323.506 136.701 324.338 137.745 324.95C138.334 325.295 138.973 325.65 139.164 325.74C139.355 325.829 139.98 326.17 140.553 326.498C141.126 326.825 142.554 327.603 143.726 328.226C145.513 329.176 147.803 330.488 149.35 331.446C150.512 332.166 152.198 332.83 153.2 332.963C154.447 333.129 155.352 332.79 158.842 330.855C159.669 330.396 160.972 329.677 161.736 329.258C162.5 328.839 164.948 327.408 167.176 326.079C169.404 324.749 171.748 323.369 172.385 323.013C174.252 321.969 177.608 320.111 178.983 319.36C179.683 318.978 180.421 318.522 180.622 318.347C180.823 318.173 181.044 318.03 181.115 318.03C181.227 318.03 186.751 314.938 188.59 313.846C188.972 313.619 189.702 313.206 190.211 312.929C194.567 310.557 197.277 307.417 198.715 303.077L199.471 300.793V188.235C199.471 79.9284 199.455 75.6031 199.046 73.7108C197.07 64.5574 192.189 57.4897 184.056 52.002C176.2 46.7013 167.408 45.5364 142.752 46.5289ZM74.3415 55.3526C72.8751 55.6874 71.6893 55.9769 68.7274 56.7232C65.8408 57.4504 64.4825 57.8051 63.4606 58.0984C62.8877 58.2629 61.8459 58.5524 61.1456 58.7414C59.3065 59.2381 57.2345 59.8334 56.1682 60.1714C55.6588 60.3329 54.0441 60.8084 52.5798 61.2279C51.1155 61.6473 48.1985 62.5577 46.0976 63.2506C43.9967 63.9438 41.9652 64.5937 41.5832 64.6948C41.2012 64.7962 40.3157 65.1053 39.6154 65.3817C38.9151 65.6582 38.0296 65.9724 37.6476 66.08C36.9667 66.2715 36.3905 66.4814 33.8277 67.4702C33.1274 67.7402 32.294 68.0498 31.9756 68.1581C31.6573 68.2664 30.8239 68.5762 30.1236 68.8466C29.4233 69.1173 28.3815 69.5 27.8085 69.6971C26.4262 70.1726 22.9883 71.586 22.2167 71.9962C21.8787 72.1757 21.4884 72.3226 21.349 72.3226C21.2099 72.3226 20.3926 72.644 19.5328 73.0368C18.673 73.4295 17.6569 73.8901 17.2749 74.0602C14.5709 75.2642 11.6317 76.6695 9.33954 77.854C5.5361 79.8195 2.62373 83.062 1.21594 86.8985C-0.0406845 90.3231 0.038036 86.517 0.00863453 145.335C-0.0179888 198.783 -0.0105912 199.738 0.449183 202.696C0.706156 204.35 1.02101 206.172 1.14881 206.744C1.2766 207.317 1.55348 208.618 1.76438 209.636C2.14243 211.462 3.93361 217.222 4.8939 219.701C5.165 220.401 5.46965 221.237 5.57059 221.559C5.67153 221.881 6.03384 222.766 6.37578 223.526C6.71749 224.285 7.13558 225.219 7.30458 225.6C8.43781 228.16 10.8066 232.641 11.8657 234.23C12.2306 234.777 12.529 235.265 12.529 235.315C12.529 235.509 14.8026 238.721 17.117 241.796C23.3515 250.08 29.9182 256.638 42.3935 267.041C44.615 268.894 54.5071 276.331 57.3257 278.267C65.4928 283.879 66.6184 284.644 66.849 284.743C66.9589 284.791 67.9345 285.412 69.0168 286.125C72.8943 288.678 73.6963 289.173 74.8045 289.695C78.9337 291.639 83.4418 290.747 86.5695 287.365C87.8242 286.009 88.3229 285.188 89.3008 282.87C89.7242 281.866 89.7365 279.97 89.7321 216.353L89.7275 150.87L89.2339 149.366C88.1792 146.154 86.0954 143.607 83.44 142.285L82.097 141.616H66.3545H50.612L49.3387 142.166C46.6761 143.318 45.1023 144.896 44.1205 147.4C43.7015 148.468 43.6667 149.158 43.6672 156.423L43.6679 164.289L44.2754 165.488C45.6383 168.178 47.7072 169.822 50.4497 170.395C51.1245 170.536 53.5338 170.652 55.804 170.652C58.8358 170.652 59.989 170.729 60.1485 170.941C60.4263 171.311 60.3513 241.984 60.0728 242.075C59.9626 242.111 58.8826 241.351 57.673 240.386C49.0405 233.498 40.6685 224.269 37.0199 217.618C36.5662 216.791 35.9307 215.631 35.6077 215.039C35.0697 214.054 33.7622 211.037 33.0153 209.058C32.1428 206.746 31.1899 203.099 30.3595 198.89C29.5818 194.95 29.5441 192.272 29.6189 146.247C29.6626 119.426 29.7795 100.569 29.9032 100.42C30.2173 100.041 33.5686 98.4319 36.8373 97.0898C38.4289 96.4362 40.0733 95.7497 40.4914 95.5644C40.9095 95.3791 41.4503 95.2275 41.6932 95.2275C41.936 95.2275 42.1967 95.1273 42.2724 95.0047C42.3481 94.8821 42.7451 94.6822 43.1542 94.5603C43.5635 94.4386 44.4712 94.1177 45.1716 93.8475C45.8719 93.5775 48.0596 92.829 50.0332 92.1847C52.0068 91.5403 53.9862 90.8795 54.4319 90.716C56.8907 89.8143 59.8477 88.9796 60.0093 89.1415C60.1114 89.244 60.2265 95.1061 60.2652 102.168L60.3353 115.009L61.024 116.397C62.0001 118.365 63.929 120.254 65.66 120.937C67.0002 121.465 67.3044 121.487 74.3026 121.556C80.5771 121.618 81.7178 121.575 82.7526 121.241C85.5448 120.34 88.0162 118.04 89.0237 115.405L89.6289 113.822L89.6233 90.3032C89.6177 68.0132 89.5946 66.6887 89.1779 64.9454C87.4305 57.6334 81.408 53.7393 74.3415 55.3526ZM226.077 55.3991C221.791 56.7889 218.785 60.2094 217.751 64.8753C217.173 67.4825 217.203 280.553 217.782 282.582C219.729 289.405 226.547 292.627 232.439 289.507C233.547 288.921 239.68 284.987 241.837 283.479C242.219 283.212 244.251 281.835 246.352 280.42C253.46 275.631 253.575 275.548 262.441 268.713C266.093 265.897 266.329 265.703 271.619 261.139C275.473 257.815 284.17 249.171 286.543 246.307C288.873 243.496 291.392 240.108 293.337 237.169C294.264 235.769 295.218 234.342 295.458 233.997C295.698 233.652 295.894 233.312 295.894 233.24C295.894 233.169 296.137 232.722 296.435 232.247C298.64 228.728 301.975 221.535 302.841 218.428C302.948 218.046 303.289 217.005 303.598 216.115C304.532 213.43 305.312 210.237 305.943 206.513C306.232 204.809 306.39 203.471 306.887 198.531C307.037 197.029 306.327 194.069 305.461 192.593C304.321 190.649 302.437 189.222 300.293 188.675C298.502 188.219 286.27 188.217 283.971 188.672C279.696 189.519 277.619 191.951 276.802 197.067C275.697 203.987 274.488 208.816 273.233 211.321C273.124 211.54 272.531 212.76 271.915 214.032C267.746 222.652 261.18 230.616 252.132 238.029C250.162 239.643 248.161 241.292 247.685 241.694C247.052 242.228 246.787 242.34 246.699 242.11C246.634 241.937 246.607 225.814 246.639 206.282L246.699 170.767L263.483 170.652C280.091 170.537 280.281 170.531 281.621 170.025C283.941 169.15 285.392 167.695 286.528 165.106C286.949 164.145 286.981 163.511 286.981 156.083V148.094L286.339 146.81C285.176 144.482 283.684 143.074 281.309 142.06C280.323 141.639 279.377 141.61 263.483 141.5L246.699 141.384V115.24C246.699 89.2362 246.701 89.0966 247.162 89.1399C247.416 89.164 248.146 89.3435 248.782 89.5392C249.419 89.7347 250.409 90.0145 250.982 90.1609C251.555 90.3074 252.388 90.5602 252.834 90.7224C253.279 90.8848 254.79 91.3881 256.191 91.8409C257.591 92.2934 259.31 92.8841 260.01 93.1531C260.711 93.4225 261.544 93.7311 261.862 93.8394C262.181 93.9476 263.014 94.26 263.715 94.5334C264.415 94.8069 265.3 95.1255 265.682 95.2414C266.064 95.3571 266.585 95.5461 266.84 95.6613C267.095 95.7766 268.136 96.2032 269.155 96.6095C270.174 97.0155 271.372 97.506 271.817 97.699C272.263 97.8921 272.94 98.1781 273.322 98.3347C274.941 98.9983 275.876 99.5496 276.488 100.202L277.14 100.896L277.144 107.605C277.149 115.004 277.266 115.814 278.647 117.998C279.422 119.222 281.142 120.607 282.698 121.259C283.923 121.772 294.773 122.042 298.571 121.654C302.682 121.233 305.347 119.098 306.641 115.186C307.206 113.477 307.062 92.5481 306.468 90.1376C304.882 83.6964 301.415 79.6751 294.621 76.3951C290.568 74.4384 289.5 73.9574 287.054 72.9887C285.788 72.4871 284.577 71.9913 284.362 71.8867C282.92 71.185 277.075 68.8522 276.757 68.8522C276.623 68.8522 272.974 67.464 271.933 67.0168C271.678 66.9073 270.532 66.489 269.387 66.0869C268.241 65.6848 266.961 65.2054 266.543 65.0217C266.125 64.838 265.633 64.6877 265.451 64.6877C265.268 64.6877 264.777 64.5414 264.359 64.3631C263.663 64.0658 260.694 63.1123 257.811 62.2604C252.579 60.714 249.423 59.805 245.773 58.793C245.009 58.5813 243.915 58.271 243.342 58.1038C242.251 57.7849 240.322 57.2794 238.075 56.723C237.343 56.5418 236.327 56.2871 235.818 56.1569C231.177 54.9711 228.128 54.734 226.077 55.3991ZM137.053 75.5696C136.709 75.7644 136.676 84.4682 136.653 182.441L136.626 289.1L137.143 289.588C137.606 290.026 141.349 292.349 141.592 292.349C141.646 292.349 143.753 293.579 146.273 295.083C150.691 297.719 153.208 299.058 153.744 299.058C153.966 299.058 155.991 298.045 156.99 297.433C157.181 297.316 158.431 296.592 159.768 295.825C161.105 295.057 162.355 294.324 162.546 294.197C162.737 294.069 163.049 293.893 163.24 293.805C163.431 293.716 164.346 293.197 165.273 292.649C166.199 292.102 167.008 291.655 167.069 291.655C167.21 291.655 169.47 290.093 170.014 289.62C170.401 289.283 170.418 284.222 170.361 184.901L170.301 80.536L169.763 79.5638C168.515 77.3101 166.446 76.0885 163.125 75.6443C160.406 75.2808 137.678 75.2156 137.053 75.5696Z" fill="#172C50"/>
</g>
</svg>
